<?xml version="1.0" encoding="utf-8"?>
<!-- Generator: Adobe Illustrator 25.1.0, SVG Export Plug-In . SVG Version: 6.00 Build 0)  -->
<svg version="1.1" id="레이어_1" xmlns="http://www.w3.org/2000/svg" xmlns:xlink="http://www.w3.org/1999/xlink" x="0px"
	 y="0px" viewBox="0 0 1500 470" style="enable-background:new 0 0 1500 470;" xml:space="preserve">
<style type="text/css">
	.st0{fill:#FFFFFF;}
</style>
<rect class="st0" width="1500" height="470"/>
<g>
	<path d="M198,119v76H83v-76H198 M248,69H63c-16.57,0-30,13.43-30,30v116c0,16.57,13.43,30,30,30h185V69L248,69z"/>
</g>
<g>
	<rect x="32.5" y="69" width="52.5" height="303"/>
</g>
<g>
	<rect x="156.37" y="197.34" transform="matrix(0.7914 -0.6113 0.6113 0.7914 -136.6216 171.2647)" width="52.5" height="176.94"/>
</g>
<g>
	<rect x="216.15" y="319.56" width="79.85" height="52.5"/>
</g>
<g>
	<rect x="295.5" y="69" width="52.5" height="303"/>
</g>
<g>
	<path d="M538.08,343.54l-42.35,28.87c-0.28,0.19-0.67,0.12-0.86-0.16L306.41,95.81c-0.19-0.28-0.12-0.67,0.16-0.86l35.93-24.49
		c3.83-2.61,9.06-1.62,11.67,2.21l184.07,270.01C538.43,342.96,538.36,343.35,538.08,343.54z"/>
</g>
<g>
	<rect x="494" y="72.44" width="52" height="300.11"/>
</g>
<g>
	<path d="M603.94,179.72v38.3h-15.88v-91.83h35.79c4.3,0,8.27,0.76,11.91,2.28c3.64,1.52,6.79,3.67,9.44,6.44
		c2.65,2.77,4.7,6.07,6.16,9.9c1.46,3.83,2.19,8.04,2.19,12.65c0,4.14-0.6,7.91-1.78,11.3c-1.19,3.4-2.88,6.38-5.06,8.96
		c-2.19,2.58-4.8,4.69-7.83,6.33c-3.03,1.64-6.39,2.73-10.07,3.28l25.9,30.69h-19.45L603.94,179.72z M622.24,174.57
		c4.83,0,8.55-1.62,11.16-4.86c2.61-3.24,3.91-7.32,3.91-12.24c0-4.92-1.31-8.98-3.91-12.18c-2.61-3.2-6.33-4.8-11.16-4.8h-18.3
		v34.09H622.24z"/>
	<path d="M738.59,126.19v91.83h-15.88v-37.95h-36.02l-5.75-10.19v48.14h-15.88v-91.83h15.88v39.83h41.78v-39.83H738.59z"/>
	<path d="M783.59,171.87H772.2l-24.97-45.68h18.18l21.41,39.59l21.41-39.59h18.18l-31.65,58.22v33.62h-15.88v-37.37L783.59,171.87z"
		/>
	<path d="M879.92,200.1h-31.65l-5.18-9.25l-8.63,27.18h-16.69l29.81-91.83h24.97l29.81,91.83h-16.69L879.92,200.1z M844.71,185.58
		h30.61l-15.19-48.26L844.71,185.58z"/>
	<path d="M912.15,224.58v-17.92h17.49v17.92H912.15z"/>
	<path d="M946.91,126.19h27.74l30.15,81.17v-81.17h15.65v91.83h-27.74l-30.15-81.17v81.17h-15.65V126.19z"/>
	<path d="M1046.57,180.31c-0.08,0.63-0.12,1.23-0.12,1.82c0,0.59,0,1.19,0,1.82c0,3.91,0.54,7.2,1.61,9.9
		c1.07,2.69,2.53,4.9,4.37,6.62c1.84,1.72,3.93,2.97,6.27,3.75c2.34,0.78,4.78,1.17,7.31,1.17c3.61,0,6.62-0.66,9.03-1.99
		c2.42-1.33,4.39-3.24,5.93-5.74h15.65c-1.15,3.51-2.76,6.62-4.83,9.31c-2.07,2.69-4.45,4.96-7.14,6.79c-2.69,1.83-5.62,3.2-8.8,4.1
		c-3.18,0.9-6.46,1.35-9.84,1.35c-4.37,0-8.59-0.74-12.66-2.23c-4.07-1.48-7.69-3.69-10.88-6.62c-3.18-2.93-5.74-6.6-7.65-11.01
		c-1.92-4.41-2.88-9.55-2.88-15.4c0-5.78,0.98-10.87,2.93-15.29c1.96-4.41,4.51-8.12,7.65-11.13c3.15-3,6.71-5.27,10.7-6.79
		c3.99-1.52,8.06-2.28,12.2-2.28c4.3,0,8.4,0.84,12.31,2.52c3.91,1.68,7.35,4.12,10.3,7.32c2.95,3.2,5.31,7.09,7.08,11.65
		c1.76,4.57,2.65,9.74,2.65,15.52v4.45h-44.54L1046.57,180.31z M1065.45,162.03c-1.84,0-3.72,0.27-5.64,0.82
		c-1.92,0.55-3.7,1.41-5.35,2.58c-1.65,1.17-3.13,2.71-4.43,4.63c-1.3,1.91-2.26,4.24-2.88,6.97h35.22
		c-0.62-4.53-2.47-8.16-5.58-10.89C1073.68,163.4,1069.9,162.03,1065.45,162.03z"/>
	<path d="M1138.07,163.67h-11.16v54.35h-15.19v-54.35h-12.66v-14.06h12.66v-23.43h15.19v23.43h15.77L1138.07,163.67z"/>
	<path d="M1145.55,149.62h14.73l11.16,56.46l9.67-56.46h23.02l9.67,56.46l11.16-56.46h14.73l-14.5,68.41h-23.02l-9.55-56.93
		l-9.55,56.93h-23.02L1145.55,149.62z"/>
	<path d="M1311.17,184.05c0,5.86-0.98,10.97-2.94,15.34c-1.96,4.37-4.55,8.02-7.77,10.95c-3.22,2.93-6.87,5.13-10.93,6.62
		c-4.07,1.48-8.17,2.23-12.31,2.23s-8.25-0.74-12.31-2.23c-4.07-1.48-7.71-3.69-10.93-6.62c-3.22-2.93-5.83-6.58-7.83-10.95
		c-2-4.37-2.99-9.49-2.99-15.34c0-5.78,1-10.89,2.99-15.34c1.99-4.45,4.6-8.18,7.83-11.19c3.22-3,6.87-5.27,10.93-6.79
		c4.07-1.52,8.17-2.28,12.31-2.28s8.25,0.76,12.31,2.28c4.07,1.52,7.71,3.79,10.93,6.79c3.22,3.01,5.81,6.74,7.77,11.19
		C1310.19,173.16,1311.17,178.28,1311.17,184.05z M1295.4,184.05c0-3.28-0.44-6.25-1.32-8.9c-0.88-2.65-2.13-4.92-3.74-6.79
		s-3.53-3.32-5.75-4.33c-2.23-1.01-4.68-1.52-7.37-1.52c-2.69,0-5.16,0.51-7.42,1.52c-2.26,1.02-4.2,2.46-5.81,4.33
		s-2.86,4.14-3.74,6.79c-0.88,2.66-1.32,5.62-1.32,8.9c0,6.64,1.67,11.81,5.01,15.52c3.34,3.71,7.77,5.56,13.29,5.56
		s9.94-1.85,13.24-5.56C1293.75,195.87,1295.4,190.69,1295.4,184.05z"/>
	<path d="M1321.52,218.02v-68.41h14.96v10.31c0.61-1.33,1.51-2.65,2.71-3.98c1.19-1.33,2.68-2.54,4.49-3.63
		c1.8-1.09,3.95-1.97,6.45-2.64c2.49-0.66,5.31-1,8.46-1v16.4c-4.45,0-8.1,0.47-10.93,1.41c-2.84,0.94-5.06,2.21-6.68,3.81
		c-1.61,1.6-2.72,3.51-3.34,5.74c-0.62,2.23-0.92,4.63-0.92,7.2v34.79H1321.52z"/>
	<path d="M1396.1,182.88h11.85l19.45,35.14h-17.03l-17.38-31.39l-10.59,12.53v18.86h-15.19v-95.58h15.19v55.05l23.48-27.88h18.41
		L1396.1,182.88z"/>
</g>
<g>
	<path d="M600.04,283.57c-5.08-1.19-8.96-3.44-11.64-6.77c-2.69-3.33-4.03-7.39-4.03-12.21c0-2.79,0.48-5.37,1.44-7.75
		c0.96-2.38,2.36-4.42,4.2-6.15c1.84-1.72,4.11-3.07,6.83-4.05c2.71-0.98,5.85-1.47,9.41-1.47h24.69l-3.59,10.87h-20.92
		c-3.21,0-5.68,0.71-7.4,2.14c-1.72,1.43-2.58,3.33-2.58,5.7c0,2.14,0.69,3.98,2.06,5.52c1.37,1.54,3.81,2.73,7.31,3.56l10.68,2.58
		c5.19,1.25,9.04,3.51,11.55,6.77c2.51,3.27,3.76,7.42,3.76,12.47c0,6.3-1.96,11.24-5.86,14.83c-3.91,3.59-9.63,5.39-17.16,5.39
		h-26.17l3.59-10.87h21.88c3.91,0,6.83-0.82,8.75-2.45c1.93-1.63,2.89-3.73,2.89-6.28c0-2.08-0.64-3.93-1.93-5.57
		c-1.28-1.63-3.65-2.86-7.09-3.7L600.04,283.57z"/>
	<path d="M687.14,286.15h-30.11l-4.38-7.75v25.92h37.11v10.69h-49.19v-69.85h48.32v10.69h-36.24v19.6h34.49V286.15z"/>
	<path d="M710.16,285.88v29.13h-12.08v-69.85h27.22c3.27,0,6.29,0.58,9.06,1.74c2.77,1.16,5.16,2.79,7.18,4.9
		c2.01,2.11,3.57,4.62,4.68,7.53c1.11,2.91,1.66,6.12,1.66,9.62c0,3.15-0.45,6.01-1.36,8.6c-0.91,2.58-2.19,4.86-3.85,6.82
		c-1.66,1.96-3.65,3.56-5.95,4.81c-2.31,1.25-4.86,2.08-7.66,2.5l19.7,23.34h-14.79L710.16,285.88z M724.08,281.96
		c3.68,0,6.51-1.23,8.49-3.7c1.98-2.46,2.98-5.57,2.98-9.31c0-3.74-0.99-6.83-2.98-9.27c-1.98-2.43-4.81-3.65-8.49-3.65h-13.92
		v25.92H724.08z"/>
	<path d="M781.42,305.66l19.43-60.49h12.69l-22.67,69.85h-18.99l-22.67-69.85h12.69L781.42,305.66z"/>
	<path d="M832.62,245.17v69.85h-12.08v-69.85H832.62z"/>
	<path d="M841.81,280.09c0-5.29,0.83-10.14,2.5-14.57c1.66-4.42,3.98-8.23,6.96-11.4c2.98-3.18,6.52-5.64,10.63-7.39
		c4.11-1.75,8.59-2.63,13.44-2.63c3.97,0,7.62,0.61,10.94,1.83c3.33,1.22,6.29,2.9,8.88,5.03c2.6,2.14,4.83,4.65,6.7,7.53
		c1.87,2.88,3.33,5.98,4.38,9.31h-12.43c-0.52-1.66-1.33-3.28-2.41-4.86c-1.08-1.57-2.41-2.94-3.98-4.1
		c-1.58-1.16-3.37-2.09-5.38-2.81c-2.01-0.71-4.25-1.07-6.7-1.07c-3.09,0-5.94,0.61-8.53,1.83c-2.6,1.22-4.84,2.94-6.74,5.17
		c-1.9,2.23-3.37,4.89-4.42,7.97c-1.05,3.09-1.58,6.47-1.58,10.16c0,3.68,0.53,7.07,1.58,10.16c1.05,3.09,2.52,5.75,4.42,7.97
		c1.9,2.23,4.14,3.95,6.74,5.17c2.6,1.22,5.44,1.83,8.53,1.83c4.32,0,8.16-0.94,11.51-2.81c3.36-1.87,5.79-4.68,7.31-8.42h12.43
		c-1.05,3.62-2.61,6.82-4.68,9.58c-2.07,2.76-4.49,5.06-7.27,6.91c-2.77,1.84-5.81,3.24-9.1,4.19c-3.3,0.95-6.7,1.43-10.2,1.43
		c-4.84,0-9.32-0.88-13.44-2.63c-4.11-1.75-7.66-4.22-10.63-7.39c-2.98-3.18-5.3-6.98-6.96-11.4
		C842.64,290.23,841.81,285.38,841.81,280.09z"/>
	<path d="M961.47,286.15h-30.11l-4.38-7.75v25.92h37.12v10.69h-49.2v-69.85h48.32v10.69h-36.24v19.6h34.49V286.15z"/>
</g>
<g>
	<path d="M1431.13,98.35h-10.65v-4.26h26.35v4.26h-10.65v28.72h-5.06V98.35z"/>
	<path d="M1452.21,94.09h5.82l4.27,13.46l1.48,5.13h0.2l1.44-5.13l4.31-13.46h5.82v32.99h-4.61V112.2c0-3.35,0.54-9.6,0.78-12.61
		h-0.15l-2.03,7.06l-4.17,11.68h-3.17l-4.11-11.68l-2.03-7.06h-0.12c0.32,3.01,0.78,9.26,0.78,12.61v14.88h-4.51V94.09z"/>
</g>
<g>
</g>
<g>
</g>
<g>
</g>
<g>
</g>
<g>
</g>
<g>
</g>
<g>
</g>
<g>
</g>
<g>
</g>
<g>
</g>
<g>
</g>
<g>
</g>
<g>
</g>
<g>
</g>
<g>
</g>
</svg>
