<?xml version="1.0" encoding="utf-8"?>
<!-- Generator: Adobe Illustrator 25.1.0, SVG Export Plug-In . SVG Version: 6.00 Build 0)  -->
<svg version="1.1" id="레이어_1" xmlns="http://www.w3.org/2000/svg" xmlns:xlink="http://www.w3.org/1999/xlink" x="0px"
	 y="0px" viewBox="0 0 174 26" style="enable-background:new 0 0 174 26;" xml:space="preserve">
<style type="text/css">
	.st0{fill:#FFFFFF;}
	.st1{fill:#615DFF;}
	.st2{fill:#3DD9EB;}
	.st3{enable-background:new    ;}
	.st4{fill:#11142D;}
</style>
<rect class="st0" width="174" height="26"/>
<path class="st1" d="M20.1,26c2.8,0,5-2.3,4.5-5c-0.3-1.7-0.8-3.4-1.4-5c-1.3-3.2-3.1-6-5.4-8.4C15.4,5.2,12.7,3.3,9.6,2
	C8.1,1.3,6.6,0.8,5,0.5C2.3-0.1,0,2.2,0,5v16c0,2.8,2.2,5,5,5H20.1z"/>
<g>
	<path class="st2" d="M13.7,26c-2.8,0-5-2.3-4.5-5c0.3-1.7,0.8-3.4,1.4-5c1.3-3.2,3.1-6,5.4-8.4s5.1-4.3,8.2-5.6
		c1.5-0.6,3.1-1.1,4.7-1.5c2.7-0.6,5,1.7,5,4.5v16c0,2.8-2.2,5-5,5H13.7z"/>
</g>
<g class="st3">
	<path class="st4" d="M46.68,19.29c0.07,0.27-0.03,0.41-0.29,0.41H43.9c-0.2,0-0.34-0.09-0.41-0.27L40.68,6.72
		c-0.06-0.12-0.06-0.22-0.01-0.3c0.05-0.07,0.15-0.11,0.28-0.11h2.85c0.22,0,0.36,0.09,0.43,0.27L46.68,19.29z M49.19,6.4
		c0.22,0,0.35,0.09,0.39,0.27l1.57,6.63l1.31-6.72c0.07-0.18,0.21-0.27,0.43-0.27h2.85c0.14,0,0.23,0.04,0.28,0.11
		c0.05,0.07,0.05,0.17-0.01,0.3l-2.81,12.71c-0.07,0.18-0.2,0.27-0.41,0.27h-2.68c-0.12,0-0.22-0.04-0.27-0.11
		c-0.06-0.07-0.1-0.17-0.12-0.3l-1.36-6.74l-0.99,5.17c-0.05,0.16-0.12,0.24-0.23,0.24c-0.11,0-0.19-0.08-0.23-0.24l-1.02-5.27
		c-0.06-0.18-0.06-0.34-0.02-0.48l1.24-5.3c0.05-0.18,0.18-0.27,0.39-0.27H49.19z"/>
	<path class="st4" d="M59.44,15.76v0.26c0,0.43,0.12,0.78,0.38,1.04c0.25,0.26,0.65,0.39,1.19,0.39c0.4,0,0.71-0.05,0.94-0.15
		c0.23-0.1,0.36-0.28,0.39-0.55c0.02-0.11,0.06-0.2,0.1-0.26s0.13-0.08,0.26-0.08h2.51c0.23,0,0.34,0.11,0.34,0.34v0.24
		c0,0.44-0.11,0.85-0.33,1.21c-0.22,0.36-0.53,0.68-0.94,0.94c-0.4,0.26-0.89,0.46-1.46,0.61c-0.57,0.14-1.2,0.21-1.89,0.21
		c-0.66,0-1.28-0.08-1.86-0.23c-0.58-0.15-1.09-0.39-1.52-0.72s-0.77-0.76-1.02-1.29c-0.25-0.53-0.38-1.17-0.38-1.92v-1.48
		c0-0.75,0.12-1.39,0.37-1.92s0.59-0.96,1.02-1.29c0.44-0.33,0.95-0.57,1.54-0.73c0.59-0.15,1.24-0.23,1.94-0.23
		c0.69,0,1.33,0.08,1.9,0.24s1.07,0.39,1.48,0.69c0.42,0.3,0.74,0.67,0.96,1.1s0.34,0.92,0.34,1.45v1.77c0,0.24-0.12,0.36-0.36,0.36
		H59.44z M61,12.57c-0.45,0-0.83,0.13-1.12,0.38c-0.29,0.25-0.44,0.59-0.45,1.02h3.07c-0.01-0.43-0.15-0.77-0.41-1.02
		C61.83,12.7,61.47,12.57,61,12.57z"/>
	<path class="st4" d="M70.44,10.98c0.24-0.23,0.54-0.39,0.9-0.5c0.36-0.11,0.71-0.16,1.05-0.16c0.6,0,1.16,0.1,1.67,0.29
		c0.51,0.19,0.96,0.48,1.33,0.86c0.38,0.38,0.67,0.86,0.89,1.42c0.22,0.57,0.32,1.22,0.32,1.96v0.34c0,0.76-0.12,1.42-0.36,1.99
		s-0.58,1.03-1.01,1.41c-0.44,0.38-0.97,0.65-1.59,0.84c-0.63,0.18-1.32,0.27-2.1,0.27h-4.11c-0.23,0-0.34-0.12-0.34-0.36V6.29
		c0-0.22,0.11-0.32,0.34-0.32h2.66c0.24,0,0.36,0.11,0.36,0.32V10.98z M71.63,13.12c-0.18,0-0.38,0.04-0.61,0.11
		s-0.42,0.19-0.59,0.35v3.31h1.09c0.55,0,0.97-0.15,1.27-0.45c0.3-0.3,0.45-0.79,0.45-1.46c0-0.65-0.13-1.12-0.4-1.42
		C72.58,13.26,72.17,13.12,71.63,13.12z"/>
	<path class="st4" d="M78.72,10.41V8.43c0-0.22,0.12-0.32,0.36-0.32h2.71c0.23,0,0.34,0.11,0.34,0.32v1.98h1.86
		c0.24,0,0.36,0.11,0.36,0.34v2.27c0,0.24-0.12,0.36-0.36,0.36h-1.86v2.73c0,0.33,0.06,0.55,0.19,0.67
		c0.12,0.11,0.32,0.17,0.58,0.17h1.13c0.09,0,0.17,0.03,0.24,0.08c0.07,0.06,0.1,0.15,0.1,0.27v2.32c0,0.23-0.11,0.34-0.34,0.34
		H82.9c-0.77,0-1.42-0.07-1.95-0.22c-0.53-0.15-0.96-0.38-1.29-0.71s-0.57-0.75-0.72-1.27c-0.15-0.52-0.22-1.16-0.22-1.91v-2.47
		H77.8c-0.24,0-0.36-0.12-0.36-0.36v-2.27c0-0.23,0.12-0.34,0.36-0.34H78.72z"/>
	<path class="st4" d="M90,19.96c-0.69,0-1.33-0.08-1.92-0.23c-0.59-0.15-1.09-0.39-1.51-0.72c-0.42-0.33-0.75-0.76-0.99-1.29
		c-0.24-0.53-0.36-1.17-0.36-1.92v-1.48c0-0.75,0.12-1.39,0.36-1.92s0.57-0.96,0.99-1.29c0.42-0.33,0.92-0.57,1.51-0.73
		c0.58-0.15,1.22-0.23,1.92-0.23c0.69,0,1.33,0.08,1.93,0.23c0.59,0.15,1.1,0.4,1.52,0.73c0.42,0.33,0.75,0.76,0.99,1.29
		c0.24,0.53,0.36,1.17,0.36,1.92v1.48c0,0.75-0.12,1.39-0.36,1.92c-0.24,0.53-0.57,0.96-0.99,1.29s-0.93,0.57-1.52,0.72
		C91.33,19.88,90.69,19.96,90,19.96z M90,17.19c0.27,0,0.5-0.04,0.69-0.14c0.19-0.09,0.34-0.21,0.45-0.35
		c0.11-0.14,0.2-0.3,0.25-0.49c0.05-0.18,0.08-0.36,0.08-0.55v-1.25c0-0.18-0.03-0.36-0.08-0.54c-0.05-0.18-0.13-0.34-0.25-0.49
		c-0.11-0.15-0.26-0.27-0.45-0.36c-0.19-0.09-0.42-0.14-0.69-0.14c-0.27,0-0.5,0.04-0.69,0.14c-0.19,0.09-0.34,0.21-0.45,0.36
		c-0.11,0.15-0.19,0.31-0.24,0.49c-0.05,0.18-0.07,0.36-0.07,0.54v1.25c0,0.18,0.02,0.36,0.07,0.55c0.04,0.18,0.12,0.34,0.24,0.49
		c0.11,0.14,0.26,0.26,0.45,0.35C89.49,17.15,89.72,17.19,90,17.19z"/>
	<path class="st4" d="M100.76,19.96c-0.69,0-1.33-0.08-1.92-0.23c-0.59-0.15-1.09-0.39-1.51-0.72c-0.42-0.33-0.75-0.76-0.99-1.29
		c-0.24-0.53-0.36-1.17-0.36-1.92v-1.48c0-0.75,0.12-1.39,0.36-1.92c0.24-0.53,0.57-0.96,0.99-1.29c0.42-0.33,0.92-0.57,1.51-0.73
		c0.58-0.15,1.22-0.23,1.92-0.23c0.69,0,1.33,0.08,1.93,0.23c0.59,0.15,1.1,0.4,1.52,0.73c0.42,0.33,0.75,0.76,0.99,1.29
		c0.24,0.53,0.36,1.17,0.36,1.92v1.48c0,0.75-0.12,1.39-0.36,1.92c-0.24,0.53-0.57,0.96-0.99,1.29s-0.93,0.57-1.52,0.72
		C102.09,19.88,101.45,19.96,100.76,19.96z M100.76,17.19c0.27,0,0.5-0.04,0.69-0.14c0.19-0.09,0.34-0.21,0.45-0.35
		c0.11-0.14,0.2-0.3,0.25-0.49c0.05-0.18,0.08-0.36,0.08-0.55v-1.25c0-0.18-0.03-0.36-0.08-0.54c-0.05-0.18-0.13-0.34-0.25-0.49
		c-0.11-0.15-0.26-0.27-0.45-0.36c-0.19-0.09-0.42-0.14-0.69-0.14c-0.27,0-0.5,0.04-0.69,0.14c-0.19,0.09-0.34,0.21-0.45,0.36
		c-0.11,0.15-0.19,0.31-0.24,0.49c-0.05,0.18-0.07,0.36-0.07,0.54v1.25c0,0.18,0.02,0.36,0.07,0.55c0.04,0.18,0.12,0.34,0.24,0.49
		c0.11,0.14,0.26,0.26,0.45,0.35C100.25,17.15,100.48,17.19,100.76,17.19z"/>
	<path class="st4" d="M109.93,19.7h-2.68c-0.23,0-0.34-0.12-0.34-0.36v-8.61c0-0.22,0.11-0.32,0.34-0.32h2.68
		c0.23,0,0.34,0.11,0.34,0.32v0.21c0.26-0.19,0.58-0.34,0.96-0.45c0.38-0.11,0.76-0.16,1.13-0.16c1.24,0,2.2,0.38,2.89,1.15
		c0.69,0.77,1.03,1.9,1.03,3.38v4.49c0,0.24-0.11,0.36-0.34,0.36h-2.66c-0.23,0-0.34-0.12-0.34-0.36v-4.37
		c0-0.65-0.13-1.12-0.38-1.42c-0.26-0.29-0.66-0.44-1.2-0.44c-0.16,0-0.34,0.03-0.54,0.09c-0.21,0.06-0.39,0.15-0.55,0.29v5.85
		C110.27,19.58,110.16,19.7,109.93,19.7z"/>
	<path class="st4" d="M121.83,10.13c0-0.23,0.11-0.34,0.34-0.34h2.78c0.25,0,0.38,0.11,0.38,0.34v1.47h0.84
		c0.62,0,1.09-0.08,1.41-0.24c0.31-0.16,0.47-0.48,0.47-0.96c0-0.42-0.15-0.71-0.45-0.88c-0.3-0.16-0.78-0.25-1.42-0.25h-4.33
		c-0.24,0-0.36-0.11-0.36-0.34V6.65c0-0.23,0.12-0.34,0.36-0.34h4.33c0.81,0,1.53,0.07,2.17,0.22c0.64,0.15,1.19,0.38,1.64,0.68
		s0.79,0.7,1.03,1.18c0.24,0.48,0.36,1.05,0.36,1.71c0,0.56-0.08,1.05-0.26,1.48c-0.17,0.43-0.41,0.81-0.72,1.14
		c0.43,0.28,0.79,0.68,1.07,1.18s0.42,1.07,0.42,1.68c0,0.73-0.12,1.35-0.38,1.87c-0.25,0.52-0.6,0.94-1.06,1.28
		c-0.46,0.34-1,0.58-1.64,0.73s-1.35,0.23-2.13,0.23h-4.49c-0.24,0-0.36-0.11-0.36-0.34V10.13z M126.68,16.73
		c0.57,0,1.02-0.1,1.36-0.3s0.51-0.52,0.51-0.96c0-0.25-0.05-0.45-0.15-0.61c-0.1-0.15-0.25-0.27-0.44-0.36
		c-0.19-0.08-0.42-0.14-0.69-0.17s-0.59-0.04-0.94-0.04h-1.01v2.44H126.68z"/>
	<path class="st4" d="M137.93,19.96c-0.69,0-1.33-0.08-1.92-0.23c-0.59-0.15-1.09-0.39-1.51-0.72c-0.42-0.33-0.75-0.76-0.99-1.29
		c-0.24-0.53-0.36-1.17-0.36-1.92v-1.48c0-0.75,0.12-1.39,0.36-1.92c0.24-0.53,0.57-0.96,0.99-1.29c0.42-0.33,0.92-0.57,1.51-0.73
		c0.58-0.15,1.22-0.23,1.92-0.23c0.69,0,1.33,0.08,1.93,0.23c0.59,0.15,1.1,0.4,1.52,0.73c0.42,0.33,0.75,0.76,0.99,1.29
		c0.24,0.53,0.36,1.17,0.36,1.92v1.48c0,0.75-0.12,1.39-0.36,1.92c-0.24,0.53-0.57,0.96-0.99,1.29s-0.93,0.57-1.52,0.72
		C139.27,19.88,138.63,19.96,137.93,19.96z M137.93,17.19c0.27,0,0.5-0.04,0.69-0.14c0.19-0.09,0.34-0.21,0.45-0.35
		c0.11-0.14,0.2-0.3,0.25-0.49c0.05-0.18,0.08-0.36,0.08-0.55v-1.25c0-0.18-0.03-0.36-0.08-0.54c-0.05-0.18-0.13-0.34-0.25-0.49
		c-0.11-0.15-0.26-0.27-0.45-0.36c-0.19-0.09-0.42-0.14-0.69-0.14c-0.27,0-0.5,0.04-0.69,0.14c-0.19,0.09-0.34,0.21-0.45,0.36
		c-0.11,0.15-0.19,0.31-0.24,0.49c-0.05,0.18-0.07,0.36-0.07,0.54v1.25c0,0.18,0.02,0.36,0.07,0.55c0.04,0.18,0.12,0.34,0.24,0.49
		c0.11,0.14,0.26,0.26,0.45,0.35C137.43,17.15,137.66,17.19,137.93,17.19z"/>
	<path class="st4" d="M152.97,19.7h-2.71c-0.24,0-0.36-0.11-0.36-0.34v-5.95c-0.15-0.1-0.3-0.18-0.46-0.22
		c-0.16-0.04-0.31-0.07-0.46-0.07c-0.54,0-0.97,0.15-1.27,0.44c-0.3,0.3-0.45,0.77-0.45,1.42c0,0.67,0.15,1.16,0.45,1.46
		c0.3,0.3,0.73,0.45,1.27,0.45h0.07c0.23,0,0.34,0.12,0.34,0.36v2.12c0,0.23-0.11,0.34-0.34,0.34h-0.07c-0.77,0-1.47-0.09-2.1-0.27
		c-0.62-0.18-1.16-0.46-1.59-0.84c-0.44-0.38-0.78-0.84-1.01-1.41c-0.24-0.56-0.36-1.22-0.36-1.99v-0.34c0-0.74,0.11-1.39,0.32-1.96
		c0.22-0.57,0.51-1.04,0.89-1.42s0.82-0.67,1.34-0.86c0.52-0.19,1.08-0.29,1.68-0.29c0.29,0,0.6,0.04,0.91,0.13
		c0.31,0.09,0.59,0.22,0.84,0.4v-0.1c0-0.23,0.12-0.34,0.36-0.34h2.71c0.23,0,0.34,0.11,0.34,0.34v8.61
		C153.31,19.58,153.2,19.7,152.97,19.7z"/>
	<path class="st4" d="M157.75,19.7h-2.73c-0.23,0-0.34-0.12-0.34-0.36v-8.61c0-0.22,0.11-0.32,0.34-0.32h2.71
		c0.24,0,0.36,0.11,0.36,0.32v0.46c0.5-0.44,1-0.71,1.51-0.81c0.51-0.1,1.02-0.14,1.54-0.14c0.24,0,0.36,0.11,0.36,0.32v2.56
		c0,0.24-0.11,0.36-0.34,0.36c-0.32,0-0.61,0.01-0.88,0.03c-0.27,0.02-0.52,0.07-0.76,0.14c-0.24,0.07-0.47,0.16-0.71,0.28
		c-0.23,0.12-0.48,0.28-0.72,0.49v4.93C158.09,19.58,157.98,19.7,157.75,19.7z"/>
	<path class="st4" d="M168.17,13.58c-0.17-0.16-0.37-0.28-0.6-0.35s-0.43-0.11-0.6-0.11c-0.55,0-0.95,0.15-1.22,0.44
		c-0.27,0.3-0.4,0.77-0.4,1.42c0,0.67,0.15,1.16,0.45,1.46c0.3,0.3,0.72,0.45,1.27,0.45h0.24c0.23,0,0.34,0.12,0.34,0.36v2.12
		c0,0.23-0.11,0.34-0.34,0.34h-0.24c-0.77,0-1.47-0.09-2.1-0.27c-0.62-0.18-1.16-0.46-1.59-0.84s-0.78-0.84-1.01-1.41
		c-0.24-0.56-0.36-1.22-0.36-1.99v-0.34c0-0.74,0.11-1.39,0.32-1.96c0.22-0.57,0.51-1.04,0.89-1.42s0.82-0.67,1.34-0.86
		s1.08-0.29,1.68-0.29c0.33,0,0.67,0.05,1.02,0.16c0.35,0.11,0.65,0.28,0.9,0.5V6.29c0-0.22,0.12-0.32,0.36-0.32h2.66
		c0.23,0,0.34,0.11,0.34,0.32v13.05c0,0.24-0.11,0.36-0.34,0.36h-2.68c-0.23,0-0.34-0.12-0.34-0.36V13.58z"/>
</g>
</svg>
