<?xml version="1.0" encoding="utf-8"?>
<!-- Generator: Adobe Illustrator 25.1.0, SVG Export Plug-In . SVG Version: 6.00 Build 0)  -->
<svg version="1.1" id="레이어_1" xmlns="http://www.w3.org/2000/svg" xmlns:xlink="http://www.w3.org/1999/xlink" x="0px"
	 y="0px" viewBox="0 0 168 26" style="enable-background:new 0 0 168 26;" xml:space="preserve">
<style type="text/css">
	.st0{fill:#615DFF;}
	.st1{fill:#3DD9EB;}
	.st2{enable-background:new    ;}
	.st3{fill:#F2F2F2;}
</style>
<path class="st0" d="M154.1,26c2.8,0,5-2.3,4.5-5c-0.3-1.7-0.8-3.4-1.4-5c-1.3-3.2-3.1-6-5.4-8.4c-2.3-2.4-5.1-4.3-8.2-5.6
	c-1.5-0.6-3.1-1.1-4.7-1.5c-2.7-0.6-5,1.7-5,4.5v16c0,2.8,2.2,5,5,5H154.1z"/>
<path class="st1" d="M147.7,26c-2.8,0-5-2.3-4.5-5c0.3-1.7,0.8-3.4,1.5-5c1.3-3.2,3.1-6,5.4-8.4c2.3-2.4,5.1-4.3,8.2-5.6
	c1.5-0.6,3.1-1.1,4.7-1.5c2.7-0.6,5,1.7,5,4.5v16c0,2.8-2.2,5-5,5H147.7z"/>
<g class="st2">
	<path class="st3" d="M7.4,19.7c0.1,0.3,0,0.4-0.3,0.4H4.8c-0.2,0-0.3-0.1-0.4-0.3L1.7,7.7c-0.1-0.1-0.1-0.2,0-0.3
		c0-0.1,0.1-0.1,0.3-0.1h2.7c0.2,0,0.3,0.1,0.4,0.3L7.4,19.7z M9.8,7.4c0.2,0,0.3,0.1,0.4,0.3l1.5,6.3l1.3-6.4
		c0.1-0.2,0.2-0.3,0.4-0.3h2.7c0.1,0,0.2,0,0.3,0.1c0,0.1,0,0.2,0,0.3l-2.7,12.1c-0.1,0.2-0.2,0.3-0.4,0.3h-2.6
		c-0.1,0-0.2,0-0.3-0.1c-0.1-0.1-0.1-0.2-0.1-0.3L9,13.3l-0.9,4.9c0,0.2-0.1,0.2-0.2,0.2c-0.1,0-0.2-0.1-0.2-0.2l-1-5
		c-0.1-0.2-0.1-0.3,0-0.5l1.2-5.1c0-0.2,0.2-0.3,0.4-0.3H9.8z"/>
	<path class="st3" d="M19.6,16.3v0.2c0,0.4,0.1,0.7,0.4,1c0.2,0.2,0.6,0.4,1.1,0.4c0.4,0,0.7,0,0.9-0.1c0.2-0.1,0.3-0.3,0.4-0.5
		c0-0.1,0.1-0.2,0.1-0.2c0-0.1,0.1-0.1,0.2-0.1h2.4c0.2,0,0.3,0.1,0.3,0.3v0.2c0,0.4-0.1,0.8-0.3,1.2s-0.5,0.6-0.9,0.9
		s-0.9,0.4-1.4,0.6s-1.1,0.2-1.8,0.2c-0.6,0-1.2-0.1-1.8-0.2c-0.6-0.1-1-0.4-1.5-0.7c-0.4-0.3-0.7-0.7-1-1.2
		c-0.2-0.5-0.4-1.1-0.4-1.8v-1.4c0-0.7,0.1-1.3,0.4-1.8c0.2-0.5,0.6-0.9,1-1.2s0.9-0.5,1.5-0.7c0.6-0.1,1.2-0.2,1.9-0.2
		c0.7,0,1.3,0.1,1.8,0.2s1,0.4,1.4,0.7c0.4,0.3,0.7,0.6,0.9,1.1c0.2,0.4,0.3,0.9,0.3,1.4V16c0,0.2-0.1,0.3-0.3,0.3H19.6z M21.1,13.3
		c-0.4,0-0.8,0.1-1.1,0.4c-0.3,0.2-0.4,0.6-0.4,1h2.9c0-0.4-0.1-0.7-0.4-1C21.9,13.4,21.6,13.3,21.1,13.3z"/>
	<path class="st3" d="M30.1,11.8c0.2-0.2,0.5-0.4,0.9-0.5c0.3-0.1,0.7-0.2,1-0.2c0.6,0,1.1,0.1,1.6,0.3c0.5,0.2,0.9,0.5,1.3,0.8
		c0.4,0.4,0.6,0.8,0.8,1.4c0.2,0.5,0.3,1.2,0.3,1.9v0.3c0,0.7-0.1,1.4-0.3,1.9c-0.2,0.5-0.6,1-1,1.3c-0.4,0.4-0.9,0.6-1.5,0.8
		s-1.3,0.3-2,0.3h-3.9c-0.2,0-0.3-0.1-0.3-0.3V7.3C26.9,7.1,27,7,27.2,7h2.5c0.2,0,0.3,0.1,0.3,0.3V11.8z M31.3,13.8
		c-0.2,0-0.4,0-0.6,0.1s-0.4,0.2-0.6,0.3v3.2h1c0.5,0,0.9-0.1,1.2-0.4s0.4-0.8,0.4-1.4c0-0.6-0.1-1.1-0.4-1.4
		C32.2,13.9,31.8,13.8,31.3,13.8z"/>
	<path class="st3" d="M38.1,11.2V9.3c0-0.2,0.1-0.3,0.3-0.3H41c0.2,0,0.3,0.1,0.3,0.3v1.9h1.8c0.2,0,0.3,0.1,0.3,0.3v2.2
		c0,0.2-0.1,0.3-0.3,0.3h-1.8v2.6c0,0.3,0.1,0.5,0.2,0.6c0.1,0.1,0.3,0.2,0.6,0.2h1.1c0.1,0,0.2,0,0.2,0.1c0.1,0.1,0.1,0.1,0.1,0.3
		V20c0,0.2-0.1,0.3-0.3,0.3H42c-0.7,0-1.4-0.1-1.9-0.2c-0.5-0.1-0.9-0.4-1.2-0.7c-0.3-0.3-0.5-0.7-0.7-1.2s-0.2-1.1-0.2-1.8v-2.4
		h-0.9c-0.2,0-0.3-0.1-0.3-0.3v-2.2c0-0.2,0.1-0.3,0.3-0.3H38.1z"/>
	<path class="st3" d="M48.8,20.3c-0.7,0-1.3-0.1-1.8-0.2c-0.6-0.1-1-0.4-1.4-0.7c-0.4-0.3-0.7-0.7-0.9-1.2c-0.2-0.5-0.3-1.1-0.3-1.8
		v-1.4c0-0.7,0.1-1.3,0.3-1.8c0.2-0.5,0.5-0.9,0.9-1.2c0.4-0.3,0.9-0.5,1.4-0.7c0.6-0.1,1.2-0.2,1.8-0.2c0.7,0,1.3,0.1,1.8,0.2
		c0.6,0.1,1,0.4,1.5,0.7c0.4,0.3,0.7,0.7,0.9,1.2c0.2,0.5,0.3,1.1,0.3,1.8v1.4c0,0.7-0.1,1.3-0.3,1.8c-0.2,0.5-0.5,0.9-0.9,1.2
		c-0.4,0.3-0.9,0.5-1.5,0.7C50.1,20.3,49.5,20.3,48.8,20.3z M48.8,17.7c0.3,0,0.5,0,0.7-0.1c0.2-0.1,0.3-0.2,0.4-0.3
		c0.1-0.1,0.2-0.3,0.2-0.5c0-0.2,0.1-0.3,0.1-0.5v-1.2c0-0.2,0-0.3-0.1-0.5c0-0.2-0.1-0.3-0.2-0.5c-0.1-0.1-0.3-0.3-0.4-0.3
		c-0.2-0.1-0.4-0.1-0.7-0.1s-0.5,0-0.7,0.1c-0.2,0.1-0.3,0.2-0.4,0.3c-0.1,0.1-0.2,0.3-0.2,0.5c0,0.2-0.1,0.3-0.1,0.5v1.2
		c0,0.2,0,0.3,0.1,0.5c0,0.2,0.1,0.3,0.2,0.5c0.1,0.1,0.3,0.2,0.4,0.3C48.3,17.7,48.6,17.7,48.8,17.7z"/>
	<path class="st3" d="M59.1,20.3c-0.7,0-1.3-0.1-1.8-0.2c-0.6-0.1-1-0.4-1.4-0.7c-0.4-0.3-0.7-0.7-0.9-1.2c-0.2-0.5-0.3-1.1-0.3-1.8
		v-1.4c0-0.7,0.1-1.3,0.3-1.8c0.2-0.5,0.5-0.9,0.9-1.2c0.4-0.3,0.9-0.5,1.4-0.7c0.6-0.1,1.2-0.2,1.8-0.2c0.7,0,1.3,0.1,1.8,0.2
		c0.6,0.1,1,0.4,1.5,0.7c0.4,0.3,0.7,0.7,0.9,1.2c0.2,0.5,0.3,1.1,0.3,1.8v1.4c0,0.7-0.1,1.3-0.3,1.8c-0.2,0.5-0.5,0.9-0.9,1.2
		C62,19.7,61.5,20,61,20.1C60.4,20.3,59.8,20.3,59.1,20.3z M59.1,17.7c0.3,0,0.5,0,0.7-0.1c0.2-0.1,0.3-0.2,0.4-0.3
		c0.1-0.1,0.2-0.3,0.2-0.5c0-0.2,0.1-0.3,0.1-0.5v-1.2c0-0.2,0-0.3-0.1-0.5c0-0.2-0.1-0.3-0.2-0.5c-0.1-0.1-0.3-0.3-0.4-0.3
		c-0.2-0.1-0.4-0.1-0.7-0.1s-0.5,0-0.7,0.1c-0.2,0.1-0.3,0.2-0.4,0.3c-0.1,0.1-0.2,0.3-0.2,0.5c0,0.2-0.1,0.3-0.1,0.5v1.2
		c0,0.2,0,0.3,0.1,0.5c0,0.2,0.1,0.3,0.2,0.5c0.1,0.1,0.3,0.2,0.4,0.3C58.6,17.7,58.9,17.7,59.1,17.7z"/>
	<path class="st3" d="M67.9,20.1h-2.6c-0.2,0-0.3-0.1-0.3-0.3v-8.2c0-0.2,0.1-0.3,0.3-0.3h2.6c0.2,0,0.3,0.1,0.3,0.3v0.2
		c0.2-0.2,0.6-0.3,0.9-0.4c0.4-0.1,0.7-0.2,1.1-0.2c1.2,0,2.1,0.4,2.8,1.1c0.7,0.7,1,1.8,1,3.2v4.3c0,0.2-0.1,0.3-0.3,0.3h-2.5
		c-0.2,0-0.3-0.1-0.3-0.3v-4.2c0-0.6-0.1-1.1-0.4-1.4c-0.2-0.3-0.6-0.4-1.1-0.4c-0.2,0-0.3,0-0.5,0.1s-0.4,0.1-0.5,0.3v5.6
		C68.2,20,68.1,20.1,67.9,20.1z"/>
	<path class="st3" d="M79.3,11c0-0.2,0.1-0.3,0.3-0.3h2.7c0.2,0,0.4,0.1,0.4,0.3v1.4h0.8c0.6,0,1-0.1,1.3-0.2
		c0.3-0.2,0.4-0.5,0.4-0.9c0-0.4-0.1-0.7-0.4-0.8c-0.3-0.2-0.7-0.2-1.4-0.2h-4.1c-0.2,0-0.3-0.1-0.3-0.3V7.6c0-0.2,0.1-0.3,0.3-0.3
		h4.1c0.8,0,1.5,0.1,2.1,0.2c0.6,0.1,1.1,0.4,1.6,0.7c0.4,0.3,0.8,0.7,1,1.1c0.2,0.5,0.3,1,0.3,1.6c0,0.5-0.1,1-0.2,1.4
		c-0.2,0.4-0.4,0.8-0.7,1.1c0.4,0.3,0.8,0.6,1,1.1c0.3,0.5,0.4,1,0.4,1.6c0,0.7-0.1,1.3-0.4,1.8c-0.2,0.5-0.6,0.9-1,1.2
		c-0.4,0.3-1,0.6-1.6,0.7s-1.3,0.2-2,0.2h-4.3c-0.2,0-0.3-0.1-0.3-0.3V11z M83.9,17.3c0.5,0,1-0.1,1.3-0.3c0.3-0.2,0.5-0.5,0.5-0.9
		c0-0.2,0-0.4-0.1-0.6c-0.1-0.1-0.2-0.3-0.4-0.3c-0.2-0.1-0.4-0.1-0.7-0.2s-0.6,0-0.9,0h-1v2.3H83.9z"/>
	<path class="st3" d="M94.6,20.3c-0.7,0-1.3-0.1-1.8-0.2c-0.6-0.1-1-0.4-1.4-0.7s-0.7-0.7-0.9-1.2c-0.2-0.5-0.3-1.1-0.3-1.8v-1.4
		c0-0.7,0.1-1.3,0.3-1.8s0.5-0.9,0.9-1.2s0.9-0.5,1.4-0.7C93.4,11,94,11,94.6,11s1.3,0.1,1.8,0.2c0.6,0.1,1,0.4,1.5,0.7
		c0.4,0.3,0.7,0.7,0.9,1.2s0.3,1.1,0.3,1.8v1.4c0,0.7-0.1,1.3-0.3,1.8c-0.2,0.5-0.5,0.9-0.9,1.2c-0.4,0.3-0.9,0.5-1.5,0.7
		C95.9,20.3,95.3,20.3,94.6,20.3z M94.6,17.7c0.3,0,0.5,0,0.7-0.1s0.3-0.2,0.4-0.3c0.1-0.1,0.2-0.3,0.2-0.5c0-0.2,0.1-0.3,0.1-0.5
		v-1.2c0-0.2,0-0.3-0.1-0.5c0-0.2-0.1-0.3-0.2-0.5c-0.1-0.1-0.3-0.3-0.4-0.3s-0.4-0.1-0.7-0.1s-0.5,0-0.7,0.1s-0.3,0.2-0.4,0.3
		c-0.1,0.1-0.2,0.3-0.2,0.5c0,0.2-0.1,0.3-0.1,0.5v1.2c0,0.2,0,0.3,0.1,0.5c0,0.2,0.1,0.3,0.2,0.5c0.1,0.1,0.3,0.2,0.4,0.3
		S94.4,17.7,94.6,17.7z"/>
	<path class="st3" d="M109,20.1h-2.6c-0.2,0-0.3-0.1-0.3-0.3v-5.7c-0.1-0.1-0.3-0.2-0.4-0.2c-0.2,0-0.3-0.1-0.4-0.1
		c-0.5,0-0.9,0.1-1.2,0.4c-0.3,0.3-0.4,0.7-0.4,1.4c0,0.6,0.1,1.1,0.4,1.4s0.7,0.4,1.2,0.4h0.1c0.2,0,0.3,0.1,0.3,0.3v2
		c0,0.2-0.1,0.3-0.3,0.3h-0.1c-0.7,0-1.4-0.1-2-0.3s-1.1-0.4-1.5-0.8c-0.4-0.4-0.7-0.8-1-1.3c-0.2-0.5-0.3-1.2-0.3-1.9v-0.3
		c0-0.7,0.1-1.3,0.3-1.9c0.2-0.5,0.5-1,0.8-1.4c0.4-0.4,0.8-0.6,1.3-0.8c0.5-0.2,1-0.3,1.6-0.3c0.3,0,0.6,0,0.9,0.1
		c0.3,0.1,0.6,0.2,0.8,0.4v-0.1c0-0.2,0.1-0.3,0.3-0.3h2.6c0.2,0,0.3,0.1,0.3,0.3v8.2C109.3,20,109.2,20.1,109,20.1z"/>
	<path class="st3" d="M113.6,20.1H111c-0.2,0-0.3-0.1-0.3-0.3v-8.2c0-0.2,0.1-0.3,0.3-0.3h2.6c0.2,0,0.3,0.1,0.3,0.3V12
		c0.5-0.4,1-0.7,1.4-0.8c0.5-0.1,1-0.1,1.5-0.1c0.2,0,0.3,0.1,0.3,0.3v2.4c0,0.2-0.1,0.3-0.3,0.3c-0.3,0-0.6,0-0.8,0
		c-0.3,0-0.5,0.1-0.7,0.1c-0.2,0.1-0.5,0.2-0.7,0.3c-0.2,0.1-0.5,0.3-0.7,0.5v4.7C113.9,20,113.8,20.1,113.6,20.1z"/>
	<path class="st3" d="M123.5,14.2c-0.2-0.2-0.4-0.3-0.6-0.3c-0.2-0.1-0.4-0.1-0.6-0.1c-0.5,0-0.9,0.1-1.2,0.4
		c-0.3,0.3-0.4,0.7-0.4,1.4c0,0.6,0.1,1.1,0.4,1.4s0.7,0.4,1.2,0.4h0.2c0.2,0,0.3,0.1,0.3,0.3v2c0,0.2-0.1,0.3-0.3,0.3h-0.2
		c-0.7,0-1.4-0.1-2-0.3s-1.1-0.4-1.5-0.8c-0.4-0.4-0.7-0.8-1-1.3c-0.2-0.5-0.3-1.2-0.3-1.9v-0.3c0-0.7,0.1-1.3,0.3-1.9
		c0.2-0.5,0.5-1,0.8-1.4s0.8-0.6,1.3-0.8c0.5-0.2,1-0.3,1.6-0.3c0.3,0,0.6,0.1,1,0.2c0.3,0.1,0.6,0.3,0.9,0.5V7.3
		c0-0.2,0.1-0.3,0.3-0.3h2.5c0.2,0,0.3,0.1,0.3,0.3v12.5c0,0.2-0.1,0.3-0.3,0.3h-2.6c-0.2,0-0.3-0.1-0.3-0.3V14.2z"/>
</g>
</svg>
