<?xml version="1.0" encoding="utf-8"?>
<!-- Generator: Adobe Illustrator 25.1.0, SVG Export Plug-In . SVG Version: 6.00 Build 0)  -->
<svg version="1.1" id="레이어_1" xmlns="http://www.w3.org/2000/svg" xmlns:xlink="http://www.w3.org/1999/xlink" x="0px"
	 y="0px" viewBox="0 0 174 26" style="enable-background:new 0 0 174 26;" xml:space="preserve">
<style type="text/css">
	.st0{fill:#615DFF;}
	.st1{fill:#3DD9EB;}
	.st2{enable-background:new    ;}
	.st3{fill:#F2F2F2;}
</style>
<path class="st0" d="M20.1,26c2.8,0,5-2.3,4.5-5c-0.3-1.7-0.8-3.4-1.4-5c-1.3-3.2-3.1-6-5.4-8.4C15.4,5.2,12.7,3.3,9.6,2
	C8.1,1.3,6.6,0.8,5,0.5C2.3-0.1,0,2.2,0,5v16c0,2.8,2.2,5,5,5H20.1z"/>
<path class="st1" d="M13.7,26c-2.8,0-5-2.3-4.5-5c0.3-1.7,0.8-3.4,1.4-5c1.3-3.2,3.1-6,5.4-8.4s5.1-4.3,8.2-5.6
	c1.5-0.6,3.1-1.1,4.7-1.5c2.7-0.6,5,1.7,5,4.5v16c0,2.8-2.2,5-5,5H13.7z"/>
<g class="st2">
	<path class="st3" d="M46.5,19.9c0.1,0.3,0,0.4-0.3,0.4h-2.5c-0.2,0-0.3-0.1-0.4-0.3L40.5,7.3c-0.1-0.1-0.1-0.2,0-0.3
		c0.1-0.1,0.1-0.1,0.3-0.1h2.8c0.2,0,0.4,0.1,0.4,0.3L46.5,19.9z M49,7c0.2,0,0.3,0.1,0.4,0.3l1.6,6.6l1.3-6.7
		c0.1-0.2,0.2-0.3,0.4-0.3h2.8c0.1,0,0.2,0,0.3,0.1c0.1,0.1,0,0.2,0,0.3L53.1,20c-0.1,0.2-0.2,0.3-0.4,0.3H50c-0.1,0-0.2,0-0.3-0.1
		c-0.1-0.1-0.1-0.2-0.1-0.3l-1.4-6.7l-1,5.2c0,0.2-0.1,0.2-0.2,0.2c-0.1,0-0.2-0.1-0.2-0.2l-1-5.3c-0.1-0.2-0.1-0.3,0-0.5L47,7.2
		C47,7.1,47.1,7,47.4,7H49z"/>
	<path class="st3" d="M59.3,16.3v0.3c0,0.4,0.1,0.8,0.4,1c0.2,0.3,0.6,0.4,1.2,0.4c0.4,0,0.7-0.1,0.9-0.2c0.2-0.1,0.4-0.3,0.4-0.5
		c0-0.1,0.1-0.2,0.1-0.3s0.1-0.1,0.3-0.1h2.5c0.2,0,0.3,0.1,0.3,0.3v0.2c0,0.4-0.1,0.8-0.3,1.2c-0.2,0.4-0.5,0.7-0.9,0.9
		c-0.4,0.3-0.9,0.5-1.5,0.6c-0.6,0.1-1.2,0.2-1.9,0.2c-0.7,0-1.3-0.1-1.9-0.2c-0.6-0.2-1.1-0.4-1.5-0.7s-0.8-0.8-1-1.3
		c-0.3-0.5-0.4-1.2-0.4-1.9v-1.5c0-0.8,0.1-1.4,0.4-1.9s0.6-1,1-1.3c0.4-0.3,1-0.6,1.5-0.7c0.6-0.2,1.2-0.2,1.9-0.2
		c0.7,0,1.3,0.1,1.9,0.2s1.1,0.4,1.5,0.7c0.4,0.3,0.7,0.7,1,1.1s0.3,0.9,0.3,1.4V16c0,0.2-0.1,0.4-0.4,0.4H59.3z M60.9,13.1
		c-0.5,0-0.8,0.1-1.1,0.4c-0.3,0.2-0.4,0.6-0.5,1h3.1c0-0.4-0.1-0.8-0.4-1C61.7,13.3,61.3,13.1,60.9,13.1z"/>
	<path class="st3" d="M70.3,11.6c0.2-0.2,0.5-0.4,0.9-0.5c0.4-0.1,0.7-0.2,1-0.2c0.6,0,1.2,0.1,1.7,0.3c0.5,0.2,1,0.5,1.3,0.9
		c0.4,0.4,0.7,0.9,0.9,1.4c0.2,0.6,0.3,1.2,0.3,2v0.3c0,0.8-0.1,1.4-0.4,2s-0.6,1-1,1.4c-0.4,0.4-1,0.7-1.6,0.8
		c-0.6,0.2-1.3,0.3-2.1,0.3h-4.1c-0.2,0-0.3-0.1-0.3-0.4v-13c0-0.2,0.1-0.3,0.3-0.3h2.7c0.2,0,0.4,0.1,0.4,0.3V11.6z M71.5,13.7
		c-0.2,0-0.4,0-0.6,0.1s-0.4,0.2-0.6,0.3v3.3h1.1c0.5,0,1-0.2,1.3-0.5c0.3-0.3,0.5-0.8,0.5-1.5c0-0.6-0.1-1.1-0.4-1.4
		C72.4,13.8,72,13.7,71.5,13.7z"/>
	<path class="st3" d="M78.6,11V9c0-0.2,0.1-0.3,0.4-0.3h2.7C81.9,8.7,82,8.8,82,9v2h1.9c0.2,0,0.4,0.1,0.4,0.3v2.3
		c0,0.2-0.1,0.4-0.4,0.4H82v2.7c0,0.3,0.1,0.6,0.2,0.7c0.1,0.1,0.3,0.2,0.6,0.2h1.1c0.1,0,0.2,0,0.2,0.1c0.1,0.1,0.1,0.1,0.1,0.3
		v2.3c0,0.2-0.1,0.3-0.3,0.3h-1.1c-0.8,0-1.4-0.1-2-0.2c-0.5-0.1-1-0.4-1.3-0.7s-0.6-0.7-0.7-1.3c-0.1-0.5-0.2-1.2-0.2-1.9v-2.5
		h-0.9c-0.2,0-0.4-0.1-0.4-0.4v-2.3c0-0.2,0.1-0.3,0.4-0.3H78.6z"/>
	<path class="st3" d="M89.9,20.5c-0.7,0-1.3-0.1-1.9-0.2s-1.1-0.4-1.5-0.7c-0.4-0.3-0.8-0.8-1-1.3c-0.2-0.5-0.4-1.2-0.4-1.9v-1.5
		c0-0.8,0.1-1.4,0.4-1.9s0.6-1,1-1.3c0.4-0.3,0.9-0.6,1.5-0.7c0.6-0.2,1.2-0.2,1.9-0.2c0.7,0,1.3,0.1,1.9,0.2
		c0.6,0.2,1.1,0.4,1.5,0.7c0.4,0.3,0.8,0.8,1,1.3c0.2,0.5,0.4,1.2,0.4,1.9v1.5c0,0.8-0.1,1.4-0.4,1.9c-0.2,0.5-0.6,1-1,1.3
		s-0.9,0.6-1.5,0.7C91.2,20.4,90.5,20.5,89.9,20.5z M89.9,17.8c0.3,0,0.5,0,0.7-0.1c0.2-0.1,0.3-0.2,0.5-0.3
		c0.1-0.1,0.2-0.3,0.2-0.5c0.1-0.2,0.1-0.4,0.1-0.5V15c0-0.2,0-0.4-0.1-0.5c-0.1-0.2-0.1-0.3-0.2-0.5c-0.1-0.1-0.3-0.3-0.5-0.4
		c-0.2-0.1-0.4-0.1-0.7-0.1c-0.3,0-0.5,0-0.7,0.1c-0.2,0.1-0.3,0.2-0.5,0.4c-0.1,0.1-0.2,0.3-0.2,0.5c0,0.2-0.1,0.4-0.1,0.5v1.2
		c0,0.2,0,0.4,0.1,0.5c0,0.2,0.1,0.3,0.2,0.5c0.1,0.1,0.3,0.3,0.5,0.3C89.3,17.7,89.6,17.8,89.9,17.8z"/>
	<path class="st3" d="M100.6,20.5c-0.7,0-1.3-0.1-1.9-0.2c-0.6-0.2-1.1-0.4-1.5-0.7c-0.4-0.3-0.8-0.8-1-1.3
		c-0.2-0.5-0.4-1.2-0.4-1.9v-1.5c0-0.8,0.1-1.4,0.4-1.9c0.2-0.5,0.6-1,1-1.3c0.4-0.3,0.9-0.6,1.5-0.7c0.6-0.2,1.2-0.2,1.9-0.2
		c0.7,0,1.3,0.1,1.9,0.2c0.6,0.2,1.1,0.4,1.5,0.7c0.4,0.3,0.8,0.8,1,1.3c0.2,0.5,0.4,1.2,0.4,1.9v1.5c0,0.8-0.1,1.4-0.4,1.9
		c-0.2,0.5-0.6,1-1,1.3s-0.9,0.6-1.5,0.7C101.9,20.4,101.3,20.5,100.6,20.5z M100.6,17.8c0.3,0,0.5,0,0.7-0.1
		c0.2-0.1,0.3-0.2,0.5-0.3c0.1-0.1,0.2-0.3,0.2-0.5c0.1-0.2,0.1-0.4,0.1-0.5V15c0-0.2,0-0.4-0.1-0.5c-0.1-0.2-0.1-0.3-0.2-0.5
		c-0.1-0.1-0.3-0.3-0.5-0.4c-0.2-0.1-0.4-0.1-0.7-0.1c-0.3,0-0.5,0-0.7,0.1c-0.2,0.1-0.3,0.2-0.5,0.4c-0.1,0.1-0.2,0.3-0.2,0.5
		c0,0.2-0.1,0.4-0.1,0.5v1.2c0,0.2,0,0.4,0.1,0.5c0,0.2,0.1,0.3,0.2,0.5c0.1,0.1,0.3,0.3,0.5,0.3C100.1,17.7,100.3,17.8,100.6,17.8z
		"/>
	<path class="st3" d="M109.8,20.3h-2.7c-0.2,0-0.3-0.1-0.3-0.4v-8.6c0-0.2,0.1-0.3,0.3-0.3h2.7c0.2,0,0.3,0.1,0.3,0.3v0.2
		c0.3-0.2,0.6-0.3,1-0.5c0.4-0.1,0.8-0.2,1.1-0.2c1.2,0,2.2,0.4,2.9,1.2c0.7,0.8,1,1.9,1,3.4v4.5c0,0.2-0.1,0.4-0.3,0.4h-2.7
		c-0.2,0-0.3-0.1-0.3-0.4v-4.4c0-0.6-0.1-1.1-0.4-1.4c-0.3-0.3-0.7-0.4-1.2-0.4c-0.2,0-0.3,0-0.5,0.1c-0.2,0.1-0.4,0.2-0.5,0.3v5.8
		C110.1,20.1,110,20.3,109.8,20.3z"/>
	<path class="st3" d="M121.7,10.7c0-0.2,0.1-0.3,0.3-0.3h2.8c0.2,0,0.4,0.1,0.4,0.3v1.5h0.8c0.6,0,1.1-0.1,1.4-0.2
		c0.3-0.2,0.5-0.5,0.5-1c0-0.4-0.2-0.7-0.5-0.9c-0.3-0.2-0.8-0.2-1.4-0.2h-4.3c-0.2,0-0.4-0.1-0.4-0.3V7.2c0-0.2,0.1-0.3,0.4-0.3
		h4.3c0.8,0,1.5,0.1,2.2,0.2c0.6,0.1,1.2,0.4,1.6,0.7s0.8,0.7,1,1.2c0.2,0.5,0.4,1,0.4,1.7c0,0.6-0.1,1.1-0.3,1.5
		c-0.2,0.4-0.4,0.8-0.7,1.1c0.4,0.3,0.8,0.7,1.1,1.2s0.4,1.1,0.4,1.7c0,0.7-0.1,1.4-0.4,1.9c-0.2,0.5-0.6,0.9-1.1,1.3
		c-0.5,0.3-1,0.6-1.6,0.7s-1.3,0.2-2.1,0.2H122c-0.2,0-0.4-0.1-0.4-0.3V10.7z M126.5,17.3c0.6,0,1-0.1,1.4-0.3s0.5-0.5,0.5-1
		c0-0.2-0.1-0.5-0.2-0.6c-0.1-0.2-0.2-0.3-0.4-0.4c-0.2-0.1-0.4-0.1-0.7-0.2s-0.6,0-0.9,0h-1v2.4H126.5z"/>
	<path class="st3" d="M137.8,20.5c-0.7,0-1.3-0.1-1.9-0.2c-0.6-0.2-1.1-0.4-1.5-0.7c-0.4-0.3-0.8-0.8-1-1.3
		c-0.2-0.5-0.4-1.2-0.4-1.9v-1.5c0-0.8,0.1-1.4,0.4-1.9c0.2-0.5,0.6-1,1-1.3c0.4-0.3,0.9-0.6,1.5-0.7c0.6-0.2,1.2-0.2,1.9-0.2
		c0.7,0,1.3,0.1,1.9,0.2c0.6,0.2,1.1,0.4,1.5,0.7c0.4,0.3,0.8,0.8,1,1.3c0.2,0.5,0.4,1.2,0.4,1.9v1.5c0,0.8-0.1,1.4-0.4,1.9
		c-0.2,0.5-0.6,1-1,1.3s-0.9,0.6-1.5,0.7C139.1,20.4,138.5,20.5,137.8,20.5z M137.8,17.8c0.3,0,0.5,0,0.7-0.1
		c0.2-0.1,0.3-0.2,0.5-0.3c0.1-0.1,0.2-0.3,0.2-0.5c0.1-0.2,0.1-0.4,0.1-0.5V15c0-0.2,0-0.4-0.1-0.5c-0.1-0.2-0.1-0.3-0.2-0.5
		c-0.1-0.1-0.3-0.3-0.5-0.4c-0.2-0.1-0.4-0.1-0.7-0.1c-0.3,0-0.5,0-0.7,0.1c-0.2,0.1-0.3,0.2-0.5,0.4c-0.1,0.1-0.2,0.3-0.2,0.5
		c0,0.2-0.1,0.4-0.1,0.5v1.2c0,0.2,0,0.4,0.1,0.5c0,0.2,0.1,0.3,0.2,0.5c0.1,0.1,0.3,0.3,0.5,0.3C137.3,17.7,137.5,17.8,137.8,17.8z
		"/>
	<path class="st3" d="M152.8,20.3h-2.7c-0.2,0-0.4-0.1-0.4-0.3v-6c-0.1-0.1-0.3-0.2-0.5-0.2c-0.2,0-0.3-0.1-0.5-0.1
		c-0.5,0-1,0.1-1.3,0.4c-0.3,0.3-0.5,0.8-0.5,1.4c0,0.7,0.2,1.2,0.5,1.5c0.3,0.3,0.7,0.5,1.3,0.5h0.1c0.2,0,0.3,0.1,0.3,0.4v2.1
		c0,0.2-0.1,0.3-0.3,0.3h-0.1c-0.8,0-1.5-0.1-2.1-0.3c-0.6-0.2-1.2-0.5-1.6-0.8c-0.4-0.4-0.8-0.8-1-1.4c-0.2-0.6-0.4-1.2-0.4-2v-0.3
		c0-0.7,0.1-1.4,0.3-2c0.2-0.6,0.5-1,0.9-1.4s0.8-0.7,1.3-0.9c0.5-0.2,1.1-0.3,1.7-0.3c0.3,0,0.6,0,0.9,0.1c0.3,0.1,0.6,0.2,0.8,0.4
		v-0.1c0-0.2,0.1-0.3,0.4-0.3h2.7c0.2,0,0.3,0.1,0.3,0.3v8.6C153.2,20.2,153.1,20.3,152.8,20.3z"/>
	<path class="st3" d="M157.6,20.3h-2.7c-0.2,0-0.3-0.1-0.3-0.4v-8.6c0-0.2,0.1-0.3,0.3-0.3h2.7c0.2,0,0.4,0.1,0.4,0.3v0.5
		c0.5-0.4,1-0.7,1.5-0.8c0.5-0.1,1-0.1,1.5-0.1c0.2,0,0.4,0.1,0.4,0.3v2.6c0,0.2-0.1,0.4-0.3,0.4c-0.3,0-0.6,0-0.9,0
		c-0.3,0-0.5,0.1-0.8,0.1c-0.2,0.1-0.5,0.2-0.7,0.3c-0.2,0.1-0.5,0.3-0.7,0.5v4.9C157.9,20.1,157.8,20.3,157.6,20.3z"/>
	<path class="st3" d="M168,14.1c-0.2-0.2-0.4-0.3-0.6-0.3s-0.4-0.1-0.6-0.1c-0.5,0-1,0.1-1.2,0.4c-0.3,0.3-0.4,0.8-0.4,1.4
		c0,0.7,0.2,1.2,0.5,1.5c0.3,0.3,0.7,0.5,1.3,0.5h0.2c0.2,0,0.3,0.1,0.3,0.4v2.1c0,0.2-0.1,0.3-0.3,0.3h-0.2c-0.8,0-1.5-0.1-2.1-0.3
		c-0.6-0.2-1.2-0.5-1.6-0.8s-0.8-0.8-1-1.4c-0.2-0.6-0.4-1.2-0.4-2v-0.3c0-0.7,0.1-1.4,0.3-2c0.2-0.6,0.5-1,0.9-1.4s0.8-0.7,1.3-0.9
		s1.1-0.3,1.7-0.3c0.3,0,0.7,0.1,1,0.2c0.4,0.1,0.7,0.3,0.9,0.5V6.9c0-0.2,0.1-0.3,0.4-0.3h2.7c0.2,0,0.3,0.1,0.3,0.3v13
		c0,0.2-0.1,0.4-0.3,0.4h-2.7c-0.2,0-0.3-0.1-0.3-0.4V14.1z"/>
</g>
</svg>
