<?xml version="1.0" encoding="utf-8"?>
<!-- Generator: Adobe Illustrator 25.1.0, SVG Export Plug-In . SVG Version: 6.00 Build 0)  -->
<svg version="1.1" id="레이어_1" xmlns="http://www.w3.org/2000/svg" xmlns:xlink="http://www.w3.org/1999/xlink" x="0px"
	 y="0px" viewBox="0 0 168 26" style="enable-background:new 0 0 168 26;" xml:space="preserve">
<style type="text/css">
	.st0{fill:#615DFF;}
	.st1{fill:#3DD9EB;}
	.st2{enable-background:new    ;}
	.st3{fill:#333333;}
</style>
<path class="st0" d="M153.8,26c2.8,0,5-2.3,4.5-5c-0.3-1.7-0.8-3.4-1.4-5c-1.3-3.2-3.1-6-5.4-8.4c-2.3-2.4-5.1-4.3-8.2-5.6
	c-1.5-0.6-3.1-1.1-4.7-1.5c-2.7-0.6-5,1.7-5,4.5v16c0,2.8,2.2,5,5,5H153.8z"/>
<path class="st1" d="M147.4,26c-2.8,0-5-2.3-4.5-5c0.3-1.7,0.8-3.4,1.4-5c1.3-3.2,3.1-6,5.4-8.4c2.3-2.4,5.1-4.3,8.2-5.6
	c1.5-0.6,3.1-1.1,4.7-1.5c2.7-0.6,5,1.7,5,4.5v16c0,2.8-2.2,5-5,5H147.4z"/>
<g class="st2">
	<path class="st3" d="M7.7,19.6c0.1,0.3,0,0.4-0.3,0.4H5c-0.2,0-0.3-0.1-0.4-0.3L1.9,7.6c-0.1-0.1-0.1-0.2,0-0.3
		c0-0.1,0.1-0.1,0.3-0.1h2.7c0.2,0,0.3,0.1,0.4,0.3L7.7,19.6z M10.1,7.3c0.2,0,0.3,0.1,0.4,0.3l1.5,6.3l1.3-6.4
		c0.1-0.2,0.2-0.3,0.4-0.3h2.7c0.1,0,0.2,0,0.3,0.1c0,0.1,0,0.2,0,0.3l-2.7,12.1c-0.1,0.2-0.2,0.3-0.4,0.3h-2.6
		c-0.1,0-0.2,0-0.3-0.1c-0.1-0.1-0.1-0.2-0.1-0.3l-1.3-6.4l-0.9,4.9c0,0.2-0.1,0.2-0.2,0.2c-0.1,0-0.2-0.1-0.2-0.2l-1-5
		c-0.1-0.2-0.1-0.3,0-0.5l1.2-5.1c0-0.2,0.2-0.3,0.4-0.3H10.1z"/>
	<path class="st3" d="M19.9,16.2v0.2c0,0.4,0.1,0.7,0.4,1c0.2,0.2,0.6,0.4,1.1,0.4c0.4,0,0.7,0,0.9-0.1c0.2-0.1,0.3-0.3,0.4-0.5
		c0-0.1,0.1-0.2,0.1-0.2c0-0.1,0.1-0.1,0.2-0.1h2.4c0.2,0,0.3,0.1,0.3,0.3v0.2c0,0.4-0.1,0.8-0.3,1.2s-0.5,0.6-0.9,0.9
		s-0.9,0.4-1.4,0.6s-1.1,0.2-1.8,0.2c-0.6,0-1.2-0.1-1.8-0.2c-0.6-0.1-1-0.4-1.5-0.7c-0.4-0.3-0.7-0.7-1-1.2
		c-0.2-0.5-0.4-1.1-0.4-1.8v-1.4c0-0.7,0.1-1.3,0.4-1.8c0.2-0.5,0.6-0.9,1-1.2s0.9-0.5,1.5-0.7c0.6-0.1,1.2-0.2,1.9-0.2
		c0.7,0,1.3,0.1,1.8,0.2s1,0.4,1.4,0.7c0.4,0.3,0.7,0.6,0.9,1.1c0.2,0.4,0.3,0.9,0.3,1.4v1.7c0,0.2-0.1,0.3-0.3,0.3H19.9z
		 M21.4,13.2c-0.4,0-0.8,0.1-1.1,0.4c-0.3,0.2-0.4,0.6-0.4,1h2.9c0-0.4-0.1-0.7-0.4-1C22.1,13.3,21.8,13.2,21.4,13.2z"/>
	<path class="st3" d="M30.4,11.7c0.2-0.2,0.5-0.4,0.9-0.5c0.3-0.1,0.7-0.2,1-0.2c0.6,0,1.1,0.1,1.6,0.3c0.5,0.2,0.9,0.5,1.3,0.8
		c0.4,0.4,0.6,0.8,0.8,1.4c0.2,0.5,0.3,1.2,0.3,1.9v0.3c0,0.7-0.1,1.4-0.3,1.9c-0.2,0.5-0.6,1-1,1.3c-0.4,0.4-0.9,0.6-1.5,0.8
		s-1.3,0.3-2,0.3h-3.9c-0.2,0-0.3-0.1-0.3-0.3V7.2c0-0.2,0.1-0.3,0.3-0.3H30c0.2,0,0.3,0.1,0.3,0.3V11.7z M31.5,13.7
		c-0.2,0-0.4,0-0.6,0.1s-0.4,0.2-0.6,0.3v3.2h1c0.5,0,0.9-0.1,1.2-0.4s0.4-0.8,0.4-1.4c0-0.6-0.1-1.1-0.4-1.4
		C32.4,13.9,32,13.7,31.5,13.7z"/>
	<path class="st3" d="M38.3,11.1V9.2c0-0.2,0.1-0.3,0.3-0.3h2.6c0.2,0,0.3,0.1,0.3,0.3v1.9h1.8c0.2,0,0.3,0.1,0.3,0.3v2.2
		c0,0.2-0.1,0.3-0.3,0.3h-1.8v2.6c0,0.3,0.1,0.5,0.2,0.6c0.1,0.1,0.3,0.2,0.6,0.2h1.1c0.1,0,0.2,0,0.2,0.1c0.1,0.1,0.1,0.1,0.1,0.3
		v2.2c0,0.2-0.1,0.3-0.3,0.3h-1.1c-0.7,0-1.4-0.1-1.9-0.2c-0.5-0.1-0.9-0.4-1.2-0.7c-0.3-0.3-0.5-0.7-0.7-1.2s-0.2-1.1-0.2-1.8V14
		h-0.9c-0.2,0-0.3-0.1-0.3-0.3v-2.2c0-0.2,0.1-0.3,0.3-0.3H38.3z"/>
	<path class="st3" d="M49.1,20.3c-0.7,0-1.3-0.1-1.8-0.2c-0.6-0.1-1-0.4-1.4-0.7c-0.4-0.3-0.7-0.7-0.9-1.2c-0.2-0.5-0.3-1.1-0.3-1.8
		v-1.4c0-0.7,0.1-1.3,0.3-1.8c0.2-0.5,0.5-0.9,0.9-1.2c0.4-0.3,0.9-0.5,1.4-0.7c0.6-0.1,1.2-0.2,1.8-0.2c0.7,0,1.3,0.1,1.8,0.2
		c0.6,0.1,1,0.4,1.5,0.7c0.4,0.3,0.7,0.7,0.9,1.2c0.2,0.5,0.3,1.1,0.3,1.8v1.4c0,0.7-0.1,1.3-0.3,1.8c-0.2,0.5-0.5,0.9-0.9,1.2
		c-0.4,0.3-0.9,0.5-1.5,0.7C50.3,20.2,49.7,20.3,49.1,20.3z M49.1,17.6c0.3,0,0.5,0,0.7-0.1c0.2-0.1,0.3-0.2,0.4-0.3
		c0.1-0.1,0.2-0.3,0.2-0.5c0-0.2,0.1-0.3,0.1-0.5V15c0-0.2,0-0.3-0.1-0.5c0-0.2-0.1-0.3-0.2-0.5c-0.1-0.1-0.3-0.3-0.4-0.3
		c-0.2-0.1-0.4-0.1-0.7-0.1s-0.5,0-0.7,0.1c-0.2,0.1-0.3,0.2-0.4,0.3c-0.1,0.1-0.2,0.3-0.2,0.5c0,0.2-0.1,0.3-0.1,0.5v1.2
		c0,0.2,0,0.3,0.1,0.5c0,0.2,0.1,0.3,0.2,0.5c0.1,0.1,0.3,0.2,0.4,0.3C48.6,17.6,48.8,17.6,49.1,17.6z"/>
	<path class="st3" d="M59.4,20.3c-0.7,0-1.3-0.1-1.8-0.2c-0.6-0.1-1-0.4-1.4-0.7c-0.4-0.3-0.7-0.7-0.9-1.2c-0.2-0.5-0.3-1.1-0.3-1.8
		v-1.4c0-0.7,0.1-1.3,0.3-1.8c0.2-0.5,0.5-0.9,0.9-1.2c0.4-0.3,0.9-0.5,1.4-0.7c0.6-0.1,1.2-0.2,1.8-0.2c0.7,0,1.3,0.1,1.8,0.2
		c0.6,0.1,1,0.4,1.5,0.7c0.4,0.3,0.7,0.7,0.9,1.2c0.2,0.5,0.3,1.1,0.3,1.8v1.4c0,0.7-0.1,1.3-0.3,1.8c-0.2,0.5-0.5,0.9-0.9,1.2
		c-0.4,0.3-0.9,0.5-1.5,0.7C60.6,20.2,60,20.3,59.4,20.3z M59.4,17.6c0.3,0,0.5,0,0.7-0.1c0.2-0.1,0.3-0.2,0.4-0.3
		c0.1-0.1,0.2-0.3,0.2-0.5c0-0.2,0.1-0.3,0.1-0.5V15c0-0.2,0-0.3-0.1-0.5c0-0.2-0.1-0.3-0.2-0.5c-0.1-0.1-0.3-0.3-0.4-0.3
		c-0.2-0.1-0.4-0.1-0.7-0.1s-0.5,0-0.7,0.1c-0.2,0.1-0.3,0.2-0.4,0.3c-0.1,0.1-0.2,0.3-0.2,0.5c0,0.2-0.1,0.3-0.1,0.5v1.2
		c0,0.2,0,0.3,0.1,0.5c0,0.2,0.1,0.3,0.2,0.5c0.1,0.1,0.3,0.2,0.4,0.3C58.9,17.6,59.1,17.6,59.4,17.6z"/>
	<path class="st3" d="M68.1,20h-2.6c-0.2,0-0.3-0.1-0.3-0.3v-8.2c0-0.2,0.1-0.3,0.3-0.3h2.6c0.2,0,0.3,0.1,0.3,0.3v0.2
		c0.2-0.2,0.6-0.3,0.9-0.4c0.4-0.1,0.7-0.2,1.1-0.2c1.2,0,2.1,0.4,2.8,1.1c0.7,0.7,1,1.8,1,3.2v4.3c0,0.2-0.1,0.3-0.3,0.3h-2.5
		c-0.2,0-0.3-0.1-0.3-0.3v-4.2c0-0.6-0.1-1.1-0.4-1.4c-0.2-0.3-0.6-0.4-1.1-0.4c-0.2,0-0.3,0-0.5,0.1s-0.4,0.1-0.5,0.3v5.6
		C68.4,19.9,68.3,20,68.1,20z"/>
	<path class="st3" d="M79.5,10.9c0-0.2,0.1-0.3,0.3-0.3h2.7c0.2,0,0.4,0.1,0.4,0.3v1.4h0.8c0.6,0,1-0.1,1.3-0.2
		c0.3-0.2,0.4-0.5,0.4-0.9c0-0.4-0.1-0.7-0.4-0.8s-0.7-0.2-1.4-0.2h-4.1c-0.2,0-0.3-0.1-0.3-0.3V7.5c0-0.2,0.1-0.3,0.3-0.3h4.1
		c0.8,0,1.5,0.1,2.1,0.2c0.6,0.1,1.1,0.4,1.6,0.7c0.4,0.3,0.8,0.7,1,1.1s0.3,1,0.3,1.6c0,0.5-0.1,1-0.2,1.4S88,13,87.7,13.3
		c0.4,0.3,0.8,0.6,1,1.1s0.4,1,0.4,1.6c0,0.7-0.1,1.3-0.4,1.8c-0.2,0.5-0.6,0.9-1,1.2c-0.4,0.3-1,0.6-1.6,0.7
		c-0.6,0.1-1.3,0.2-2,0.2h-4.3c-0.2,0-0.3-0.1-0.3-0.3V10.9z M84.1,17.2c0.5,0,1-0.1,1.3-0.3c0.3-0.2,0.5-0.5,0.5-0.9
		c0-0.2,0-0.4-0.1-0.6c-0.1-0.1-0.2-0.3-0.4-0.3c-0.2-0.1-0.4-0.1-0.7-0.2s-0.6,0-0.9,0h-1v2.3H84.1z"/>
	<path class="st3" d="M94.9,20.3c-0.7,0-1.3-0.1-1.8-0.2c-0.6-0.1-1-0.4-1.4-0.7c-0.4-0.3-0.7-0.7-0.9-1.2c-0.2-0.5-0.3-1.1-0.3-1.8
		v-1.4c0-0.7,0.1-1.3,0.3-1.8c0.2-0.5,0.5-0.9,0.9-1.2c0.4-0.3,0.9-0.5,1.4-0.7c0.6-0.1,1.2-0.2,1.8-0.2c0.7,0,1.3,0.1,1.8,0.2
		c0.6,0.1,1,0.4,1.5,0.7s0.7,0.7,0.9,1.2c0.2,0.5,0.3,1.1,0.3,1.8v1.4c0,0.7-0.1,1.3-0.3,1.8c-0.2,0.5-0.5,0.9-0.9,1.2
		s-0.9,0.5-1.5,0.7C96.2,20.2,95.5,20.3,94.9,20.3z M94.9,17.6c0.3,0,0.5,0,0.7-0.1c0.2-0.1,0.3-0.2,0.4-0.3s0.2-0.3,0.2-0.5
		s0.1-0.3,0.1-0.5V15c0-0.2,0-0.3-0.1-0.5c0-0.2-0.1-0.3-0.2-0.5c-0.1-0.1-0.3-0.3-0.4-0.3c-0.2-0.1-0.4-0.1-0.7-0.1s-0.5,0-0.7,0.1
		c-0.2,0.1-0.3,0.2-0.4,0.3c-0.1,0.1-0.2,0.3-0.2,0.5c0,0.2-0.1,0.3-0.1,0.5v1.2c0,0.2,0,0.3,0.1,0.5c0,0.2,0.1,0.3,0.2,0.5
		s0.3,0.2,0.4,0.3C94.4,17.6,94.6,17.6,94.9,17.6z"/>
	<path class="st3" d="M109.3,20h-2.6c-0.2,0-0.3-0.1-0.3-0.3V14c-0.1-0.1-0.3-0.2-0.4-0.2c-0.2,0-0.3-0.1-0.4-0.1
		c-0.5,0-0.9,0.1-1.2,0.4c-0.3,0.3-0.4,0.7-0.4,1.4c0,0.6,0.1,1.1,0.4,1.4s0.7,0.4,1.2,0.4h0.1c0.2,0,0.3,0.1,0.3,0.3v2
		c0,0.2-0.1,0.3-0.3,0.3h-0.1c-0.7,0-1.4-0.1-2-0.3s-1.1-0.4-1.5-0.8c-0.4-0.4-0.7-0.8-1-1.3c-0.2-0.5-0.3-1.2-0.3-1.9v-0.3
		c0-0.7,0.1-1.3,0.3-1.9c0.2-0.5,0.5-1,0.8-1.4s0.8-0.6,1.3-0.8c0.5-0.2,1-0.3,1.6-0.3c0.3,0,0.6,0,0.9,0.1c0.3,0.1,0.6,0.2,0.8,0.4
		v-0.1c0-0.2,0.1-0.3,0.3-0.3h2.6c0.2,0,0.3,0.1,0.3,0.3v8.2C109.6,19.9,109.5,20,109.3,20z"/>
	<path class="st3" d="M113.8,20h-2.6c-0.2,0-0.3-0.1-0.3-0.3v-8.2c0-0.2,0.1-0.3,0.3-0.3h2.6c0.2,0,0.3,0.1,0.3,0.3v0.4
		c0.5-0.4,1-0.7,1.4-0.8c0.5-0.1,1-0.1,1.5-0.1c0.2,0,0.3,0.1,0.3,0.3v2.4c0,0.2-0.1,0.3-0.3,0.3c-0.3,0-0.6,0-0.8,0
		c-0.3,0-0.5,0.1-0.7,0.1s-0.5,0.2-0.7,0.3s-0.5,0.3-0.7,0.5v4.7C114.2,19.9,114,20,113.8,20z"/>
	<path class="st3" d="M123.8,14.2c-0.2-0.2-0.4-0.3-0.6-0.3c-0.2-0.1-0.4-0.1-0.6-0.1c-0.5,0-0.9,0.1-1.2,0.4
		c-0.3,0.3-0.4,0.7-0.4,1.4c0,0.6,0.1,1.1,0.4,1.4s0.7,0.4,1.2,0.4h0.2c0.2,0,0.3,0.1,0.3,0.3v2c0,0.2-0.1,0.3-0.3,0.3h-0.2
		c-0.7,0-1.4-0.1-2-0.3s-1.1-0.4-1.5-0.8c-0.4-0.4-0.7-0.8-1-1.3c-0.2-0.5-0.3-1.2-0.3-1.9v-0.3c0-0.7,0.1-1.3,0.3-1.9
		c0.2-0.5,0.5-1,0.8-1.4c0.4-0.4,0.8-0.6,1.3-0.8c0.5-0.2,1-0.3,1.6-0.3c0.3,0,0.6,0.1,1,0.2c0.3,0.1,0.6,0.3,0.9,0.5V7.2
		c0-0.2,0.1-0.3,0.3-0.3h2.5c0.2,0,0.3,0.1,0.3,0.3v12.5c0,0.2-0.1,0.3-0.3,0.3h-2.6c-0.2,0-0.3-0.1-0.3-0.3V14.2z"/>
</g>
</svg>
