<?xml version="1.0" encoding="utf-8"?>
<!-- Generator: Adobe Illustrator 25.1.0, SVG Export Plug-In . SVG Version: 6.00 Build 0)  -->
<svg version="1.1" xmlns="http://www.w3.org/2000/svg" xmlns:xlink="http://www.w3.org/1999/xlink" x="0px" y="0px"
	 viewBox="0 0 1400 300" style="enable-background:new 0 0 1400 300;" xml:space="preserve">
<style type="text/css">
	.st0{fill:#FFFFFF;stroke:#000000;stroke-miterlimit:10;}
	.st1{stroke:#000000;stroke-miterlimit:10;}
</style>
<g id="레이어_2">
	<rect x="-57.4" y="-39.8" class="st0" width="1631.5" height="489.4"/>
</g>
<g id="레이어_1">
	<g>
		<g>
			<path d="M65.3,181.1"/>
			<g>
				<path d="M65.3,193.6c16.1,0,16.1-25,0-25C49.2,168.6,49.2,193.6,65.3,193.6L65.3,193.6z"/>
			</g>
		</g>
		<polygon points="304.2,45.3 304.2,210.7 268.9,210.7 268.9,90 228.4,46.7 228.4,210.7 188.3,210.7 152.6,210.7 40.5,210.7 
			40.5,89.3 187.7,89.3 166.4,66.5 186.5,45 40.5,45 0,45 0,89.3 0,210.7 0,255 40.5,255 152.6,255 188.3,255 228.4,255 268.9,255 
			304.2,255 344.7,255 344.7,210.7 344.7,88.6 		"/>
	</g>
	<rect x="372.3" y="35.3" class="st1" width="11.6" height="235.1"/>
	<g>
		<g>
			<path d="M528.7,74v64.4h-88c-0.6,0-1-0.4-1-1V75c0-0.6,0.4-1,1-1H528.7 M557.7,45h-117c-16.6,0-30,13.4-30,30v62.4
				c0,16.6,13.4,30,30,30h117V45L557.7,45z"/>
		</g>
		<g>
			<rect x="410.4" y="45" width="35.9" height="210.7"/>
		</g>
		<g>
			<polygon points="564.2,233.3 535.8,255.6 464.2,161.4 492.6,139.1 			"/>
		</g>
		<g>
			<rect x="535.9" y="219.3" width="54.6" height="36.5"/>
		</g>
		<g>
			<rect x="590.2" y="45" width="35.9" height="210.7"/>
		</g>
		<g>
			<path d="M755.9,236l-28.6,19.8c-0.3,0.2-0.7,0.1-0.9-0.2L597.8,63.8c-0.2-0.3-0.1-0.7,0.2-0.9l22.2-15.4
				c3.9-2.7,9.1-1.7,11.7,2.3l124.2,185.3C756.3,235.5,756.2,235.9,755.9,236z"/>
		</g>
		<g>
			<rect x="725.9" y="47.4" width="35.6" height="208.7"/>
		</g>
		<g>
			<path d="M801.1,122v26.6h-10.9V84.8h24.5c2.9,0,5.7,0.5,8.1,1.6c2.5,1.1,4.6,2.6,6.5,4.5c1.8,1.9,3.2,4.2,4.2,6.9
				c1,2.7,1.5,5.6,1.5,8.8c0,2.9-0.4,5.5-1.2,7.9c-0.8,2.4-2,4.4-3.5,6.2c-1.5,1.8-3.3,3.3-5.4,4.4c-2.1,1.1-4.4,1.9-6.9,2.3
				l17.7,21.3h-13.3L801.1,122z M813.6,118.4c3.3,0,5.8-1.1,7.6-3.4c1.8-2.3,2.7-5.1,2.7-8.5c0-3.4-0.9-6.2-2.7-8.5
				c-1.8-2.2-4.3-3.3-7.6-3.3h-12.5v23.7H813.6z"/>
			<path d="M893.2,84.8v63.9h-10.9v-26.4h-24.6l-3.9-7.1v33.5h-10.9V84.8h10.9v27.7h28.6V84.8H893.2z"/>
			<path d="M924,116.6h-7.8l-17.1-31.8h12.4l14.6,27.5l14.6-27.5h12.4l-21.6,40.5v23.4h-10.9v-26L924,116.6z"/>
			<path d="M989.9,136.2h-21.6l-3.5-6.4l-5.9,18.9h-11.4l20.4-63.9h17.1l20.4,63.9h-11.4L989.9,136.2z M965.8,126.1h20.9l-10.4-33.6
				L965.8,126.1z"/>
			<path d="M1011.9,153.2v-12.5h12v12.5H1011.9z"/>
			<path d="M1035.7,84.8h19l20.6,56.4V84.8h10.7v63.9h-19l-20.6-56.4v56.4h-10.7V84.8z"/>
			<path d="M1103.8,122.4c-0.1,0.4-0.1,0.9-0.1,1.3s0,0.8,0,1.3c0,2.7,0.4,5,1.1,6.9c0.7,1.9,1.7,3.4,3,4.6c1.3,1.2,2.7,2.1,4.3,2.6
				c1.6,0.5,3.3,0.8,5,0.8c2.5,0,4.5-0.5,6.2-1.4c1.7-0.9,3-2.3,4.1-4h10.7c-0.8,2.4-1.9,4.6-3.3,6.5c-1.4,1.9-3,3.4-4.9,4.7
				c-1.8,1.3-3.8,2.2-6,2.9c-2.2,0.6-4.4,0.9-6.7,0.9c-3,0-5.9-0.5-8.7-1.5c-2.8-1-5.3-2.6-7.4-4.6c-2.2-2-3.9-4.6-5.2-7.7
				c-1.3-3.1-2-6.6-2-10.7c0-4,0.7-7.6,2-10.6c1.3-3.1,3.1-5.6,5.2-7.7c2.2-2.1,4.6-3.7,7.3-4.7c2.7-1.1,5.5-1.6,8.3-1.6
				c2.9,0,5.7,0.6,8.4,1.8c2.7,1.2,5,2.9,7,5.1c2,2.2,3.6,4.9,4.8,8.1c1.2,3.2,1.8,6.8,1.8,10.8v3.1h-30.5L1103.8,122.4z
				 M1116.7,109.7c-1.3,0-2.5,0.2-3.9,0.6c-1.3,0.4-2.5,1-3.7,1.8c-1.1,0.8-2.1,1.9-3,3.2c-0.9,1.3-1.5,2.9-2,4.8h24.1
				c-0.4-3.1-1.7-5.7-3.8-7.6C1122.4,110.7,1119.8,109.7,1116.7,109.7z"/>
			<path d="M1166.4,110.9h-7.6v37.8h-10.4v-37.8h-8.7v-9.8h8.7V84.8h10.4v16.3h10.8L1166.4,110.9z"/>
			<path d="M1171.5,101.1h10.1l7.6,39.3l6.6-39.3h15.7l6.6,39.3l7.6-39.3h10.1l-9.9,47.6h-15.7l-6.5-39.6l-6.5,39.6h-15.7
				L1171.5,101.1z"/>
			<path d="M1284.8,125c0,4.1-0.7,7.6-2,10.7c-1.3,3-3.1,5.6-5.3,7.6c-2.2,2-4.7,3.6-7.5,4.6c-2.8,1-5.6,1.5-8.4,1.5
				c-2.8,0-5.6-0.5-8.4-1.5c-2.8-1-5.3-2.6-7.5-4.6c-2.2-2-4-4.6-5.4-7.6c-1.4-3-2-6.6-2-10.7c0-4,0.7-7.6,2-10.7
				c1.4-3.1,3.1-5.7,5.4-7.8c2.2-2.1,4.7-3.7,7.5-4.7c2.8-1.1,5.6-1.6,8.4-1.6c2.8,0,5.6,0.5,8.4,1.6c2.8,1.1,5.3,2.6,7.5,4.7
				c2.2,2.1,4,4.7,5.3,7.8S1284.8,121,1284.8,125z M1274,125c0-2.3-0.3-4.3-0.9-6.2c-0.6-1.8-1.5-3.4-2.6-4.7s-2.4-2.3-3.9-3
				c-1.5-0.7-3.2-1.1-5-1.1c-1.8,0-3.5,0.4-5.1,1.1c-1.5,0.7-2.9,1.7-4,3c-1.1,1.3-2,2.9-2.6,4.7c-0.6,1.8-0.9,3.9-0.9,6.2
				c0,4.6,1.1,8.2,3.4,10.8c2.3,2.6,5.3,3.9,9.1,3.9c3.8,0,6.8-1.3,9.1-3.9C1272.8,133.2,1274,129.6,1274,125z"/>
			<path d="M1291.8,148.7v-47.6h10.2v7.2c0.4-0.9,1-1.8,1.8-2.8c0.8-0.9,1.8-1.8,3.1-2.5c1.2-0.8,2.7-1.4,4.4-1.8
				c1.7-0.5,3.6-0.7,5.8-0.7v11.4c-3,0-5.5,0.3-7.5,1c-1.9,0.7-3.5,1.5-4.6,2.6c-1.1,1.1-1.9,2.4-2.3,4c-0.4,1.5-0.6,3.2-0.6,5v24.2
				H1291.8z"/>
			<path d="M1342.8,124.2h8.1l13.3,24.4h-11.6l-11.9-21.8l-7.2,8.7v13.1h-10.4V82.2h10.4v38.3l16.1-19.4h12.6L1342.8,124.2z"/>
		</g>
		<g>
			<path d="M798.5,194.2c-3.5-0.8-6.1-2.4-8-4.7c-1.8-2.3-2.8-5.1-2.8-8.5c0-1.9,0.3-3.7,1-5.4c0.7-1.7,1.6-3.1,2.9-4.3
				c1.3-1.2,2.8-2.1,4.7-2.8c1.9-0.7,4-1,6.4-1h16.9l-2.5,7.6h-14.3c-2.2,0-3.9,0.5-5.1,1.5c-1.2,1-1.8,2.3-1.8,4
				c0,1.5,0.5,2.8,1.4,3.8c0.9,1.1,2.6,1.9,5,2.5l7.3,1.8c3.6,0.9,6.2,2.4,7.9,4.7c1.7,2.3,2.6,5.2,2.6,8.7c0,4.4-1.3,7.8-4,10.3
				c-2.7,2.5-6.6,3.7-11.7,3.7h-17.9l2.5-7.6h15c2.7,0,4.7-0.6,6-1.7c1.3-1.1,2-2.6,2-4.4c0-1.4-0.4-2.7-1.3-3.9
				c-0.9-1.1-2.5-2-4.8-2.6L798.5,194.2z"/>
			<path d="M858,196h-20.6l-3-5.4v18h25.4v7.4h-33.6v-48.6h33v7.4h-24.8v13.6H858V196z"/>
			<path d="M873.8,195.8v20.3h-8.3v-48.6h18.6c2.2,0,4.3,0.4,6.2,1.2c1.9,0.8,3.5,1.9,4.9,3.4c1.4,1.5,2.4,3.2,3.2,5.2
				c0.8,2,1.1,4.3,1.1,6.7c0,2.2-0.3,4.2-0.9,6c-0.6,1.8-1.5,3.4-2.6,4.7c-1.1,1.4-2.5,2.5-4.1,3.3c-1.6,0.9-3.3,1.4-5.2,1.7
				l13.5,16.2H890L873.8,195.8z M883.3,193.1c2.5,0,4.4-0.9,5.8-2.6c1.4-1.7,2-3.9,2-6.5c0-2.6-0.7-4.7-2-6.4
				c-1.4-1.7-3.3-2.5-5.8-2.5h-9.5v18H883.3z"/>
			<path d="M922.5,209.6l13.3-42.1h8.7L929,216.1h-13l-15.5-48.6h8.7L922.5,209.6z"/>
			<path d="M957.5,167.5v48.6h-8.3v-48.6H957.5z"/>
			<path d="M963.8,191.8c0-3.7,0.6-7.1,1.7-10.1c1.1-3.1,2.7-5.7,4.8-7.9c2-2.2,4.5-3.9,7.3-5.1c2.8-1.2,5.9-1.8,9.2-1.8
				c2.7,0,5.2,0.4,7.5,1.3c2.3,0.8,4.3,2,6.1,3.5c1.8,1.5,3.3,3.2,4.6,5.2c1.3,2,2.3,4.2,3,6.5h-8.5c-0.4-1.2-0.9-2.3-1.6-3.4
				c-0.7-1.1-1.6-2-2.7-2.8c-1.1-0.8-2.3-1.5-3.7-2c-1.4-0.5-2.9-0.7-4.6-0.7c-2.1,0-4.1,0.4-5.8,1.3c-1.8,0.8-3.3,2-4.6,3.6
				c-1.3,1.5-2.3,3.4-3,5.5c-0.7,2.1-1.1,4.5-1.1,7.1c0,2.6,0.4,4.9,1.1,7.1c0.7,2.1,1.7,4,3,5.5c1.3,1.5,2.8,2.7,4.6,3.6
				c1.8,0.8,3.7,1.3,5.8,1.3c3,0,5.6-0.7,7.9-2c2.3-1.3,4-3.3,5-5.9h8.5c-0.7,2.5-1.8,4.7-3.2,6.7c-1.4,1.9-3.1,3.5-5,4.8
				c-1.9,1.3-4,2.2-6.2,2.9c-2.3,0.7-4.6,1-7,1c-3.3,0-6.4-0.6-9.2-1.8c-2.8-1.2-5.2-2.9-7.3-5.1c-2-2.2-3.6-4.9-4.8-7.9
				C964.4,198.9,963.8,195.5,963.8,191.8z"/>
			<path d="M1045.6,196H1025l-3-5.4v18h25.4v7.4h-33.6v-48.6h33v7.4H1022v13.6h23.6V196z"/>
		</g>
		<g>
			<path d="M1366.8,65.4h-7.3v-3h18v3h-7.3v20h-3.5V65.4z"/>
			<path d="M1381.2,62.5h4l2.9,9.4l1,3.6h0.1l1-3.6l2.9-9.4h4v22.9h-3.2V75.1c0-2.3,0.4-6.7,0.5-8.8h-0.1l-1.4,4.9l-2.9,8.1h-2.2
				l-2.8-8.1l-1.4-4.9h-0.1c0.2,2.1,0.5,6.4,0.5,8.8v10.3h-3.1V62.5z"/>
		</g>
	</g>
	<g>
	</g>
	<g>
	</g>
	<g>
	</g>
	<g>
	</g>
	<g>
	</g>
	<g>
	</g>
</g>
</svg>
